# xmcd CD database file
#
# Track frame offsets:
#	150
#	20157
#	40397
#	60405
#
# Disc length: 1073 seconds
#
# Revision: 4
# Processed by: cddbd v1.5.2PL0 Copyright (c) Steve Scherf et al.
# Submitted via: CDex 1.70beta2
#
DISCID=2f042f04
DTITLE=DiVA  - 月の裏側
DYEAR=2011
DGENRE=JPop
TTITLE0=月の裏側
TTITLE1=インフォメーション
TTITLE2=月の裏側(instrumental)
TTITLE3=インフォメーション(instrumental)
EXTD=YEAR: 2011
EXTT0=
EXTT1=
EXTT2=
EXTT3=
PLAYORDER=
